<svg width="455" height="549" viewBox="0 0 455 549" fill="none" xmlns="http://www.w3.org/2000/svg">
<g id="zoho-building">
<g id="outline">
<path d="M446.567 57.5927C453.461 64.4437 455.57 73.1558 451.36 77.3929C447.149 81.63 438.424 79.5763 431.53 72.7253L382.284 23.7899C375.389 16.9389 373.28 8.22683 377.491 3.98971C381.701 -0.247415 390.426 1.80632 397.321 8.65728L446.567 57.5927Z" fill="black"/>
<path d="M22.5918 78.7832C16.6637 86.4856 8.28666 89.6749 3.55298 86.0317C-1.18069 82.3885 -0.242228 73.474 5.68585 65.7716L48.0292 10.7545C53.9573 3.05211 62.3344 -0.137242 67.0681 3.50598C71.8017 7.1492 70.8633 16.0636 64.9352 23.766L22.5918 78.7832Z" fill="black"/>
<path d="M443.743 159.121C442.347 170.163 436.594 178.25 430.668 177.501C424.742 176.752 421.182 167.487 422.578 156.445L432.547 77.574C433.943 66.532 439.696 58.4447 445.622 59.1937C451.548 59.9428 455.108 69.2072 453.712 80.2492L443.743 159.121Z" fill="black"/>
<path d="M0.0442182 79.866C-0.484613 68.7487 3.78791 59.7907 9.7545 59.5069C15.7211 59.223 20.8246 67.735 21.3535 78.8523L25.1308 158.261C25.6597 169.379 21.3871 178.337 15.4205 178.621C9.45395 178.904 4.35041 170.392 3.82158 159.275L0.0442182 79.866Z" fill="black"/>
<path d="M338.267 0C370.093 0 395.1 4.62 395.1 10.5C395.1 16.38 370.093 21 338.267 21H110.933C79.1066 21 54.0999 16.38 54.0999 10.5C54.0999 4.62 79.1066 0 110.933 0H338.267Z" fill="black"/>
<path d="M385.063 466.8C383.936 472.666 378.441 476.39 372.575 475.263C366.709 474.136 362.986 468.641 364.112 462.775L420.457 169.471C421.061 166.329 423.091 163.678 425.798 162.025C428.674 160.623 431.977 160.388 434.999 161.621L443.057 164.906L385.063 466.8Z" fill="black"/>
<path d="M7.42444 178.207C6.14235 172.373 9.71895 166.782 15.5531 165.499C21.3872 164.217 26.9785 167.794 28.2606 173.628L92.365 465.334C93.0518 468.46 92.2343 471.697 90.4002 474.284C88.312 476.709 85.3697 478.229 82.1069 478.291L73.4062 478.456L7.42444 178.207Z" fill="black"/>
<path d="M300.1 142.821C306.073 142.821 310.767 147.515 310.767 153.488C310.767 159.461 306.073 164.155 300.1 164.155H257.433C251.46 164.155 246.767 159.461 246.767 153.488C246.767 147.515 251.46 142.821 257.433 142.821H300.1Z" fill="black"/>
<path d="M310.767 217.488C310.767 223.461 306.073 228.155 300.1 228.155H257.433C251.46 228.155 246.767 223.461 246.767 217.488C246.767 211.515 251.46 206.821 257.433 206.821H300.1C306.073 206.821 310.767 211.515 310.767 217.488Z" fill="black"/>
<path d="M300.1 270.821C306.073 270.821 310.767 275.514 310.767 281.488C310.767 287.461 306.073 292.154 300.1 292.154H257.433C251.46 292.154 246.767 287.461 246.767 281.488C246.767 275.514 251.46 270.821 257.433 270.821H300.1Z" fill="black"/>
<path d="M300.1 334.821C306.073 334.821 310.767 339.515 310.767 345.488C310.767 351.461 306.073 356.155 300.1 356.155H257.433C251.46 356.155 246.767 351.461 246.767 345.488C246.767 339.515 251.46 334.821 257.433 334.821H300.1Z" fill="black"/>
<path d="M204.1 345.488C204.1 351.461 199.407 356.155 193.433 356.155H150.767C144.793 356.155 140.1 351.461 140.1 345.488C140.1 339.515 144.793 334.821 150.767 334.821H193.433C199.407 334.821 204.1 339.515 204.1 345.488Z" fill="black"/>
<path d="M193.433 142.821C199.407 142.821 204.1 147.515 204.1 153.488C204.1 159.461 199.407 164.155 193.433 164.155H150.767C144.793 164.155 140.1 159.461 140.1 153.488C140.1 147.515 144.793 142.821 150.767 142.821H193.433Z" fill="black"/>
<path d="M193.433 206.821C199.407 206.821 204.1 211.515 204.1 217.488C204.1 223.461 199.407 228.155 193.433 228.155H150.767C144.793 228.155 140.1 223.461 140.1 217.488C140.1 211.515 144.793 206.821 150.767 206.821H193.433Z" fill="black"/>
<path d="M193.433 270.821C199.407 270.821 204.1 275.514 204.1 281.488C204.1 287.461 199.407 292.154 193.433 292.154H150.767C144.793 292.154 140.1 287.461 140.1 281.488C140.1 275.514 144.793 270.821 150.767 270.821H193.433Z" fill="black"/>
<path d="M268.1 430.822C268.1 424.848 263.193 420.155 257.433 420.155H193.433C187.46 420.155 182.767 424.848 182.767 430.822V526.822H161.433V430.822C161.433 413.115 175.727 398.822 193.433 398.822H257.433C275.14 398.822 289.433 413.115 289.433 430.822V526.822H268.1V430.822Z" fill="black"/>
<path d="M289.1 527V537.666C289.1 543.64 284.407 548.333 278.433 548.333H171.767C165.793 548.333 161.1 543.64 161.1 537.666V527H289.1Z" fill="black"/>
<path d="M369.678 459L375.945 467.631C379.455 472.465 378.414 479.02 373.58 482.53L287.265 545.199C282.432 548.709 275.876 547.668 272.367 542.835L266.1 534.203L369.678 459Z" fill="black"/>
<path d="M185.293 535.811L178.892 544.343C175.308 549.122 168.737 550.06 163.959 546.475L78.6324 482.466C73.8541 478.881 72.9162 472.31 76.5007 467.532L82.9017 459L185.293 535.811Z" fill="black"/>
</g>
<g id="background">
<path d="M268.1 430.822C268.1 424.848 263.193 420.155 257.433 420.155H193.433C187.46 420.155 182.767 424.848 182.767 430.822V526.822H173.311L173.547 527H276.021L276.266 526.822H268.1V430.822Z" fill="#1DA1F2"/>
<path fill-rule="evenodd" clip-rule="evenodd" d="M431.53 72.7253L382.284 23.7899C380.464 21.9819 378.978 20.0444 377.853 18.0936C367.686 19.9013 353.787 21 338.267 21H110.933C93.9441 21 78.8982 19.6835 68.562 17.5617C67.7057 19.6351 66.4927 21.7424 64.9352 23.766L22.5918 78.7832C22.2102 79.279 21.8185 79.7561 21.4182 80.2139L25.1308 158.261C25.2885 161.575 25.0195 164.698 24.4061 167.455C26.2953 168.927 27.6959 171.058 28.2606 173.628L92.365 465.334C92.424 465.603 92.4719 465.872 92.509 466.142L92.5187 466.214L161.433 517.912V430.822C161.433 413.115 175.727 398.822 193.433 398.822H257.433C275.14 398.822 289.433 413.115 289.433 430.822V517.262L364.058 463.08C364.075 462.978 364.093 462.877 364.112 462.775L420.457 169.471C420.775 167.813 421.491 166.292 422.493 164.982C422.466 164.753 422.442 164.522 422.42 164.288C422.19 161.855 422.229 159.206 422.578 156.445L432.547 77.574C432.694 76.4144 432.888 75.2874 433.126 74.1997C432.585 73.7363 432.052 73.2446 431.53 72.7253ZM310.767 153.488C310.767 147.515 306.073 142.821 300.1 142.821H257.433C251.46 142.821 246.767 147.515 246.767 153.488C246.767 159.461 251.46 164.155 257.433 164.155H300.1C306.073 164.155 310.767 159.461 310.767 153.488ZM300.1 228.155C306.073 228.155 310.767 223.461 310.767 217.488C310.767 211.515 306.073 206.821 300.1 206.821H257.433C251.46 206.821 246.767 211.515 246.767 217.488C246.767 223.461 251.46 228.155 257.433 228.155H300.1ZM310.767 281.488C310.767 275.514 306.073 270.821 300.1 270.821H257.433C251.46 270.821 246.767 275.514 246.767 281.488C246.767 287.461 251.46 292.154 257.433 292.154H300.1C306.073 292.154 310.767 287.461 310.767 281.488ZM310.767 345.488C310.767 339.515 306.073 334.821 300.1 334.821H257.433C251.46 334.821 246.767 339.515 246.767 345.488C246.767 351.461 251.46 356.155 257.433 356.155H300.1C306.073 356.155 310.767 351.461 310.767 345.488ZM193.433 356.155C199.407 356.155 204.1 351.461 204.1 345.488C204.1 339.515 199.407 334.821 193.433 334.821H150.767C144.793 334.821 140.1 339.515 140.1 345.488C140.1 351.461 144.793 356.155 150.767 356.155H193.433ZM204.1 153.488C204.1 147.515 199.407 142.821 193.433 142.821H150.767C144.793 142.821 140.1 147.515 140.1 153.488C140.1 159.461 144.793 164.155 150.767 164.155H193.433C199.407 164.155 204.1 159.461 204.1 153.488ZM204.1 217.488C204.1 211.515 199.407 206.821 193.433 206.821H150.767C144.793 206.821 140.1 211.515 140.1 217.488C140.1 223.461 144.793 228.155 150.767 228.155H193.433C199.407 228.155 204.1 223.461 204.1 217.488ZM204.1 281.488C204.1 275.514 199.407 270.821 193.433 270.821H150.767C144.793 270.821 140.1 275.514 140.1 281.488C140.1 287.461 144.793 292.154 150.767 292.154H193.433C199.407 292.154 204.1 287.461 204.1 281.488Z" fill="#1DA1F2"/>
</g>
</g>
</svg>
